<?xml version="1.0" encoding="UTF-8"?>
<svg xmlns="http://www.w3.org/2000/svg" xmlns:xlink="http://www.w3.org/1999/xlink" width="93pt" height="28pt" viewBox="0 0 93 28" version="1.1">
<g id="surface1">
<path style=" stroke:none;fill-rule:nonzero;fill:rgb(0%,0%,0%);fill-opacity:1;" d="M 41.8125 6.671875 C 39.886719 7.65625 41.558594 8.75 45.082031 8.75 C 47.734375 8.75 49.769531 8.203125 49.769531 7.472656 C 49.769531 6.308594 43.667969 5.6875 41.8125 6.671875 Z M 41.8125 6.671875 "/>
<path style=" stroke:none;fill-rule:nonzero;fill:rgb(0%,0%,0%);fill-opacity:1;" d="M 22.195312 8.496094 C 20.269531 9.480469 21.941406 10.574219 25.464844 10.574219 C 28.117188 10.574219 30.152344 10.027344 30.152344 9.296875 C 30.152344 8.128906 24.050781 7.511719 22.195312 8.496094 Z M 22.195312 8.496094 "/>
<path style=" stroke:none;fill-rule:nonzero;fill:rgb(0%,0%,0%);fill-opacity:1;" d="M 61.429688 8.496094 C 60.957031 8.714844 60.558594 9.078125 60.558594 9.296875 C 60.558594 10.464844 65.753906 11.046875 68.261719 10.171875 C 70.65625 9.332031 68.585938 8.019531 64.84375 8.019531 C 63.464844 8.019531 61.902344 8.238281 61.429688 8.496094 Z M 61.429688 8.496094 "/>
<path style=" stroke:none;fill-rule:nonzero;fill:rgb(0%,0%,0%);fill-opacity:1;" d="M 39.707031 9.480469 C 37.636719 9.917969 36.691406 10.464844 36.691406 11.265625 C 36.691406 11.847656 36.363281 11.996094 34.4375 12.105469 C 33.09375 12.175781 31.679688 12.03125 30.988281 11.777344 C 29.390625 11.15625 24.957031 10.828125 22.703125 11.191406 C 21.25 11.449219 20.851562 11.628906 20.78125 12.25 C 20.707031 12.6875 20.308594 13.199219 19.871094 13.417969 C 19.109375 13.78125 19.070312 13.78125 19.796875 14.035156 C 22.34375 14.875 22.886719 15.3125 22.886719 16.371094 C 22.886719 16.988281 22.667969 17.5 22.304688 17.644531 C 21.46875 17.972656 21.433594 17.9375 21.433594 17.097656 C 21.433594 15.675781 20.742188 15.019531 18.78125 14.546875 C 16.421875 14.035156 10.390625 14.253906 8.972656 14.949219 C 8.136719 15.347656 7.992188 15.640625 7.992188 17.027344 L 7.992188 18.59375 L 14.09375 18.628906 C 17.4375 18.628906 19.945312 18.738281 19.726562 18.847656 C 19.472656 18.921875 19.253906 19.324219 19.253906 19.722656 C 19.253906 20.417969 19.871094 20.417969 45.226562 20.417969 C 70.585938 20.417969 71.203125 20.417969 71.203125 19.722656 C 71.203125 19.324219 70.984375 18.921875 70.765625 18.847656 C 70.511719 18.738281 73.019531 18.628906 76.324219 18.628906 L 82.390625 18.59375 L 82.574219 17.390625 C 82.792969 15.824219 82.609375 15.457031 81.265625 14.875 C 79.667969 14.21875 72.148438 14.21875 70.585938 14.910156 C 69.570312 15.3125 69.386719 15.605469 69.386719 16.625 C 69.386719 17.316406 69.242188 17.863281 69.058594 17.863281 C 68.078125 17.863281 67.570312 17.316406 67.570312 16.371094 C 67.570312 15.3125 68.222656 14.800781 70.621094 14.035156 C 71.3125 13.855469 71.277344 13.816406 70.511719 13.269531 C 70.078125 12.941406 69.785156 12.46875 69.894531 12.175781 C 70.1875 11.410156 68.585938 11.121094 64.484375 11.15625 C 62.265625 11.191406 60.378906 11.410156 59.578125 11.703125 C 58.777344 12.03125 57.472656 12.175781 56.054688 12.105469 C 54.09375 11.996094 53.765625 11.847656 53.765625 11.265625 C 53.765625 10.425781 52.859375 9.917969 50.421875 9.480469 C 48.679688 9.113281 48.5 9.152344 47.589844 10.027344 C 46.574219 10.972656 46.136719 10.902344 46.136719 9.769531 C 46.136719 9.296875 45.882812 9.113281 45.191406 9.113281 C 44.5 9.113281 44.285156 9.261719 44.429688 9.625 C 44.539062 9.917969 44.429688 10.316406 44.175781 10.535156 C 43.847656 10.828125 43.484375 10.683594 42.867188 10.027344 C 41.960938 9.042969 41.960938 9.042969 39.707031 9.480469 Z M 62.484375 15.675781 L 68.84375 18.921875 L 21.617188 18.921875 L 27.972656 15.675781 L 34.328125 12.433594 L 56.128906 12.433594 Z M 62.484375 15.675781 "/>
<path style=" stroke:none;fill-rule:nonzero;fill:rgb(0%,0%,0%);fill-opacity:1;" d="M 12.0625 11.265625 C 10.316406 11.703125 9.808594 12.324219 10.644531 12.941406 C 12.132812 14.035156 17.257812 14.035156 18.746094 12.980469 C 19.328125 12.542969 19.328125 12.46875 18.417969 11.847656 C 17.328125 11.15625 13.839844 10.828125 12.0625 11.265625 Z M 12.0625 11.265625 "/>
<path style=" stroke:none;fill-rule:nonzero;fill:rgb(0%,0%,0%);fill-opacity:1;" d="M 73.457031 11.300781 C 70.765625 11.921875 71.238281 13.234375 74.328125 13.707031 C 77.34375 14.144531 81.085938 13.050781 80.066406 12.03125 C 79.160156 11.121094 75.816406 10.753906 73.457031 11.300781 Z M 73.457031 11.300781 "/>
</g>
</svg>
