<?xml version="1.0" standalone="no"?>
<!DOCTYPE svg PUBLIC "-//W3C//DTD SVG 20010904//EN"
 "http://www.w3.org/TR/2001/REC-SVG-20010904/DTD/svg10.dtd">
<svg version="1.0" xmlns="http://www.w3.org/2000/svg"
 width="256.000000pt" height="77.000000pt" viewBox="0 0 256.000000 77.000000"
 preserveAspectRatio="xMidYMid meet">

<g transform="translate(0.000000,77.000000) scale(0.100000,-0.100000)"
fill="#000000" stroke="none">
<path d="M1151 587 c-53 -27 -7 -57 90 -57 73 0 129 15 129 35 0 32 -168 49
-219 22z"/>
<path d="M611 537 c-53 -27 -7 -57 90 -57 73 0 129 15 129 35 0 32 -168 49
-219 22z"/>
<path d="M1691 537 c-13 -6 -24 -16 -24 -22 0 -32 143 -48 212 -24 66 23 9 59
-94 59 -38 0 -81 -6 -94 -13z"/>
<path d="M1093 510 c-57 -12 -83 -27 -83 -49 0 -16 -9 -20 -62 -23 -37 -2 -76
2 -95 9 -44 17 -166 26 -228 16 -40 -7 -51 -12 -53 -29 -2 -12 -13 -26 -25
-32 -21 -10 -22 -10 -2 -17 70 -23 85 -35 85 -64 0 -17 -6 -31 -16 -35 -23 -9
-24 -8 -24 15 0 39 -19 57 -73 70 -65 14 -231 8 -270 -11 -23 -11 -27 -19 -27
-57 l0 -43 168 -1 c92 0 161 -3 155 -6 -7 -2 -13 -13 -13 -24 0 -19 17 -19
715 -19 698 0 715 0 715 19 0 11 -6 22 -12 24 -7 3 62 6 153 6 l167 1 5 33 c6
43 1 53 -36 69 -44 18 -251 18 -294 -1 -28 -11 -33 -19 -33 -47 0 -19 -4 -34
-9 -34 -27 0 -41 15 -41 41 0 29 18 43 84 64 19 5 18 6 -3 21 -12 9 -20 22
-17 30 8 21 -36 29 -149 28 -61 -1 -113 -7 -135 -15 -22 -9 -58 -13 -97 -11
-54 3 -63 7 -63 23 0 23 -25 37 -92 49 -48 10 -53 9 -78 -15 -28 -26 -40 -24
-40 7 0 13 -7 18 -26 18 -19 0 -25 -4 -21 -14 3 -8 0 -19 -7 -25 -9 -8 -19 -4
-36 14 -25 27 -25 27 -87 15z m627 -170 l175 -89 -650 0 -650 0 175 89 175 89
300 0 300 0 175 -89z"/>
<path d="M332 461 c-48 -12 -62 -29 -39 -46 41 -30 182 -30 223 -1 16 12 16
14 -9 31 -30 19 -126 28 -175 16z"/>
<path d="M2022 460 c-74 -17 -61 -53 24 -66 83 -12 186 18 158 46 -25 25 -117
35 -182 20z"/>
</g>
</svg>
