<?xml version="1.0" standalone="no"?>
<!DOCTYPE svg PUBLIC "-//W3C//DTD SVG 20010904//EN"
 "http://www.w3.org/TR/2001/REC-SVG-20010904/DTD/svg10.dtd">
<svg version="1.0" xmlns="http://www.w3.org/2000/svg"
 width="507.000000pt" height="494.000000pt" viewBox="0 0 507.000000 494.000000"
 preserveAspectRatio="xMidYMid meet">

<g transform="translate(0.000000,494.000000) scale(0.100000,-0.100000)"
fill="#000000" stroke="none">
<path d="M2370 3874 c-45 -19 -97 -69 -121 -116 -55 -108 -19 -246 83 -313
162 -107 378 7 378 201 0 143 -103 245 -247 244 -32 -1 -74 -8 -93 -16z"/>
<path d="M1338 3556 c-153 -42 -228 -202 -162 -343 75 -157 294 -185 407 -52
153 178 -20 457 -245 395z"/>
<path d="M3493 3559 c-55 -10 -91 -30 -129 -71 -84 -88 -94 -202 -28 -304 73
-112 234 -142 343 -64 65 48 95 101 99 180 5 83 -8 124 -53 178 -57 66 -145
97 -232 81z"/>
<path d="M2411 3316 l-23 -25 22 -31 22 -32 -17 -109 c-10 -61 -21 -106 -25
-102 -4 4 -27 77 -51 161 -42 147 -44 152 -69 152 -40 0 -145 -56 -181 -98
-61 -69 -81 -132 -87 -264 l-5 -118 -89 0 -88 0 -28 -45 c-15 -25 -29 -45 -32
-45 -3 0 -16 25 -28 55 -30 69 -92 131 -162 164 -50 23 -67 26 -175 26 -110 0
-124 -2 -175 -27 -31 -15 -68 -40 -83 -56 -24 -25 -26 -32 -17 -62 14 -50 12
-139 -4 -193 -8 -26 -30 -69 -50 -97 -20 -27 -36 -54 -36 -59 0 -5 15 -18 32
-30 18 -11 51 -39 74 -63 91 -95 113 -166 115 -360 l1 -139 -44 -76 -43 -76
-6 179 c-11 302 -25 355 -114 433 -70 61 -116 75 -250 76 -109 0 -125 -2 -175
-26 -66 -32 -123 -86 -158 -154 l-27 -50 -3 -272 -3 -273 335 0 c185 0 336 -3
336 -7 0 -4 -11 -23 -25 -43 -24 -35 -26 -43 -23 -156 l3 -119 1413 -3 1412
-2 0 121 c0 112 -2 124 -26 165 l-26 44 269 1 c147 0 301 0 341 -1 l74 -1 -4
263 -3 263 -29 62 c-33 72 -94 134 -164 165 -39 19 -66 22 -167 22 -109 1
-125 -1 -176 -25 -65 -31 -130 -94 -162 -159 -20 -41 -22 -63 -27 -275 l-5
-230 -49 80 -48 79 4 146 c6 165 18 214 77 300 21 30 61 73 89 94 49 37 65 67
42 81 -22 14 -60 86 -77 145 -15 54 -15 71 -4 138 l13 76 -28 24 c-16 13 -54
36 -84 50 -50 25 -66 27 -175 27 -111 0 -124 -2 -177 -28 -67 -33 -121 -90
-155 -163 -13 -30 -26 -54 -28 -54 -2 0 -16 20 -31 45 l-26 45 -93 0 -93 0 -4
128 c-3 113 -6 132 -30 177 -46 88 -159 174 -230 175 -29 0 -28 3 -99 -242
-13 -43 -24 -76 -26 -74 -2 2 -13 52 -24 111 l-20 107 20 22 c27 28 26 38 -2
64 -31 30 -77 29 -106 -2z m736 -698 c166 -277 590 -974 607 -1001 l18 -27
-1301 0 c-715 1 -1301 3 -1301 5 0 7 39 74 60 103 10 15 89 144 176 287 344
570 418 692 441 728 l23 37 599 0 598 0 80 -132z"/>
<path d="M755 3010 c-204 -31 -278 -297 -119 -429 179 -148 446 16 395 243
-13 60 -70 135 -122 162 -41 21 -107 31 -154 24z"/>
<path d="M4036 2990 c-57 -29 -85 -58 -112 -115 -66 -139 6 -298 154 -341 200
-58 378 158 283 344 -25 48 -76 97 -123 116 -53 22 -153 20 -202 -4z"/>
</g>
</svg>
